# xmcd CD database file
#
# Track frame offsets:
#	150
#	18457
#	37307
#	55517
#
# Disc length: 989 seconds
#
# Revision: 0
# Processed by: cddbd v1.5PL3 Copyright (c) Steve Scherf et al.
# Submitted via: CDex 1.50Beta7
#
DISCID=2d03db04
DTITLE=すわひでお - 僕は崖っぷち
DYEAR=2002
DGENRE=Rock
TTITLE0=僕は崖っぷち
TTITLE1=ステテコ捨てて行こう
TTITLE2=僕は崖っぷち KARAOKE
TTITLE3=ステテコ捨てて行こう KARAOKE
EXTD=YEAR: 2002
EXTT0=
EXTT1=
EXTT2=
EXTT3=
PLAYORDER=
